<svg width="1151" height="630" viewBox="0 0 1151 630" fill="none" xmlns="http://www.w3.org/2000/svg">
<path d="M947.881 0H958.881V30H947.881V0Z" fill="#FB85D0"/>
<path d="M968 9.33543L968.034 20.3354L938.034 20.4291L938 9.42912L968 9.33543Z" fill="#FB85D0"/>
<path d="M306.881 283H317.881V313H306.881V283Z" fill="#FB85D0"/>
<path d="M327 292.335L327.034 303.335L297.034 303.429L297 292.429L327 292.335Z" fill="#FB85D0"/>
<path d="M130.881 0H141.881V30H130.881V0Z" fill="#FB85D0"/>
<path d="M151 9.33543L151.034 20.3354L121.034 20.4291L121 9.42912L151 9.33543Z" fill="#FB85D0"/>
<path d="M1129.88 441H1140.88V471H1129.88V441Z" fill="#FB85D0"/>
<path d="M1150 450.335L1150.03 461.335L1120.03 461.429L1120 450.429L1150 450.335Z" fill="#FB85D0"/>
<path d="M9.8812 185H20.8812V215H9.8812V185Z" fill="#FB85D0"/>
<path d="M29.9999 194.335L30.0342 205.335L0.0343504 205.429L0 194.429L29.9999 194.335Z" fill="#FB85D0"/>
<path d="M927.881 545H938.881V575H927.881V545Z" fill="#ED1E79"/>
<path d="M948 554.335L948.034 565.335L918.034 565.429L918 554.429L948 554.335Z" fill="#ED1E79"/>
<path d="M66.8812 444H77.8812V474H66.8812V444Z" fill="#ED1E79"/>
<path d="M86.9999 453.335L87.0342 464.335L57.0344 464.429L57 453.429L86.9999 453.335Z" fill="#ED1E79"/>
<path d="M170.881 600H181.881V630H170.881V600Z" fill="#ED1E79"/>
<path d="M191 609.335L191.034 620.335L161.034 620.429L161 609.429L191 609.335Z" fill="#ED1E79"/>
<path d="M844.881 253H855.881V283H844.881V253Z" fill="#ED1E79"/>
<path d="M865 262.335L865.034 273.335L835.034 273.429L835 262.429L865 262.335Z" fill="#ED1E79"/>
<path d="M641.881 52H652.881V82H641.881V52Z" fill="#ED1E79"/>
<path d="M662 61.3354L662.034 72.3354L632.034 72.4291L632 61.4291L662 61.3354Z" fill="#ED1E79"/>
</svg>
