<svg width="1152" height="656" viewBox="0 0 1152 656" fill="none" xmlns="http://www.w3.org/2000/svg">
<path d="M202.214 630.565L191.214 630.535L191.298 600.535L202.298 600.566L202.214 630.565Z" fill="#FB85D0"/>
<path d="M182.122 621.174L182.118 610.174L212.118 610.164L212.122 621.164L182.122 621.174Z" fill="#FB85D0"/>
<path d="M844.007 349.368L833.007 349.337L833.091 319.337L844.091 319.368L844.007 349.368Z" fill="#FB85D0"/>
<path d="M823.914 339.976L823.911 328.976L853.911 328.966L853.914 339.966L823.914 339.976Z" fill="#FB85D0"/>
<path d="M994.149 654.791L983.149 654.76L983.233 624.76L994.233 624.791L994.149 654.791Z" fill="#FB85D0"/>
<path d="M974.057 645.399L974.053 634.399L1004.05 634.389L1004.06 645.389L974.057 645.399Z" fill="#FB85D0"/>
<path d="M21.4537 189.056L10.4538 189.025L10.5381 159.025L21.538 159.056L21.4537 189.056Z" fill="#FB85D0"/>
<path d="M1.36139 179.664L1.35795 168.664L31.3579 168.655L31.3614 179.655L1.36139 179.664Z" fill="#FB85D0"/>
<path d="M1140.73 448.202L1129.73 448.171L1129.81 418.171L1140.81 418.202L1140.73 448.202Z" fill="#FB85D0"/>
<path d="M1120.64 438.81L1120.63 427.81L1150.63 427.8L1150.64 438.8L1120.64 438.81Z" fill="#FB85D0"/>
<path d="M223.745 85.6238L212.745 85.5929L212.829 55.593L223.829 55.6239L223.745 85.6238Z" fill="#ED1E79"/>
<path d="M203.653 76.2319L203.649 65.2319L233.649 65.2225L233.653 76.2225L203.653 76.2319Z" fill="#ED1E79"/>
<path d="M1084.46 189.042L1073.46 189.012L1073.54 159.012L1084.54 159.043L1084.46 189.042Z" fill="#ED1E79"/>
<path d="M1064.37 179.651L1064.36 168.651L1094.36 168.641L1094.37 179.641L1064.37 179.651Z" fill="#ED1E79"/>
<path d="M980.897 32.7509L969.897 32.72L969.981 2.72008L980.981 2.75098L980.897 32.7509Z" fill="#ED1E79"/>
<path d="M960.804 23.3589L960.801 12.3589L990.801 12.3495L990.804 23.3495L960.804 23.3589Z" fill="#ED1E79"/>
<path d="M338.153 334.056L327.153 334.026L327.237 304.026L338.237 304.057L338.153 334.056Z" fill="#ED1E79"/>
<path d="M318.061 324.665L318.057 313.665L348.057 313.655L348.061 324.655L318.061 324.665Z" fill="#ED1E79"/>
<path d="M508.359 579.425L497.359 579.394L497.443 549.395L508.443 549.425L508.359 579.425Z" fill="#ED1E79"/>
<path d="M488.267 570.033L488.263 559.033L518.263 559.024L518.267 570.024L488.267 570.033Z" fill="#ED1E79"/>
</svg>
